<svg width="20" height="20" fill="none" xmlns="http://www.w3.org/2000/svg"><path fill="#E5E5E5" d="M0 0h20v20H0z"/><path fill="#fff" d="M-421-2151h1600V780H-421z"/><path fill="#F5F4FA" d="M-421-552h1600v708H-421z"/><g filter="url(#a)"><path d="M-206-366H64V58a4 4 0 0 1-4 4h-262a4 4 0 0 1-4-4v-424Z" fill="#fff"/></g><path d="M32 10a21.93 21.93 0 0 1-6.444 15.556A21.931 21.931 0 0 1 10 32a21.931 21.931 0 0 1-15.556-6.444A21.931 21.931 0 0 1-12 10 21.931 21.931 0 0 1-5.556-5.556 21.931 21.931 0 0 1 10-12a21.931 21.931 0 0 1 15.556 6.444A21.93 21.93 0 0 1 32 10Z" fill="#fff"/><g clip-path="url(#b)" fill="#AFB1B8"><path d="M19.995 20H20v-7.336c0-3.588-.772-6.352-4.967-6.352-2.017 0-3.37 1.106-3.923 2.156h-.058V6.647H7.074v13.352h4.142v-6.611c0-1.741.33-3.425 2.486-3.425 2.124 0 2.156 1.987 2.156 3.536V20h4.137ZM.33 6.647h4.147V20H.33V6.647ZM2.402 0A2.402 2.402 0 0 0 0 2.402c0 1.325 1.076 2.424 2.402 2.424 1.325 0 2.401-1.098 2.401-2.424A2.403 2.403 0 0 0 2.402 0Z"/></g><defs><clipPath id="b"><path fill="#fff" d="M0 0h20v20H0z"/></clipPath><filter id="a" x="-209" y="-368" width="276" height="434" filterUnits="userSpaceOnUse" color-interpolation-filters="sRGB"><feFlood flood-opacity="0" result="BackgroundImageFix"/><feColorMatrix in="SourceAlpha" values="0 0 0 0 0 0 0 0 0 0 0 0 0 0 0 0 0 0 127 0" result="hardAlpha"/><feOffset dy="2"/><feGaussianBlur stdDeviation=".5"/><feColorMatrix values="0 0 0 0 0 0 0 0 0 0 0 0 0 0 0 0 0 0 0.2 0"/><feBlend in2="BackgroundImageFix" result="effect1_dropShadow_1_293"/><feColorMatrix in="SourceAlpha" values="0 0 0 0 0 0 0 0 0 0 0 0 0 0 0 0 0 0 127 0" result="hardAlpha"/><feOffset dy="1"/><feGaussianBlur stdDeviation=".5"/><feColorMatrix values="0 0 0 0 0 0 0 0 0 0 0 0 0 0 0 0 0 0 0.14 0"/><feBlend in2="effect1_dropShadow_1_293" result="effect2_dropShadow_1_293"/><feColorMatrix in="SourceAlpha" values="0 0 0 0 0 0 0 0 0 0 0 0 0 0 0 0 0 0 127 0" result="hardAlpha"/><feOffset dy="1"/><feGaussianBlur stdDeviation="1.5"/><feColorMatrix values="0 0 0 0 0 0 0 0 0 0 0 0 0 0 0 0 0 0 0.12 0"/><feBlend in2="effect2_dropShadow_1_293" result="effect3_dropShadow_1_293"/><feBlend in="SourceGraphic" in2="effect3_dropShadow_1_293" result="shape"/></filter></defs></svg>